<mxfile host="www.draw.io" modified="2020-03-12T04:05:29.434Z" agent="Mozilla/5.0 (Windows NT 6.3; Win64; x64) AppleWebKit/537.36 (KHTML, like Gecko) Chrome/75.0.3770.80 Safari/537.36" etag="pRyNiW-IyUs-5eKdS0SD" version="12.8.4" type="github">
  <diagram id="C5RBs43oDa-KdzZeNtuy" name="Page-1">
    <mxGraphModel dx="2067" dy="691" grid="1" gridSize="10" guides="1" tooltips="1" connect="1" arrows="1" fold="1" page="1" pageScale="1" pageWidth="827" pageHeight="1169" math="0" shadow="0">
      <root>
        <mxCell id="WIyWlLk6GJQsqaUBKTNV-0" />
        <mxCell id="WIyWlLk6GJQsqaUBKTNV-1" parent="WIyWlLk6GJQsqaUBKTNV-0" />
        <mxCell id="x0fX3sGU_hapRCEqtS8F-4" style="rounded=0;orthogonalLoop=1;jettySize=auto;html=1;endArrow=none;endFill=0;" edge="1" parent="WIyWlLk6GJQsqaUBKTNV-1" source="x0fX3sGU_hapRCEqtS8F-0" target="x0fX3sGU_hapRCEqtS8F-3">
          <mxGeometry relative="1" as="geometry">
            <mxPoint x="-120.11962811829994" y="291.64888749381544" as="targetPoint" />
          </mxGeometry>
        </mxCell>
        <mxCell id="x0fX3sGU_hapRCEqtS8F-5" style="edgeStyle=none;rounded=0;orthogonalLoop=1;jettySize=auto;html=1;endArrow=none;endFill=0;" edge="1" parent="WIyWlLk6GJQsqaUBKTNV-1" source="x0fX3sGU_hapRCEqtS8F-0" target="x0fX3sGU_hapRCEqtS8F-2">
          <mxGeometry relative="1" as="geometry">
            <mxPoint x="-105.9260014985573" y="169.4444282503091" as="targetPoint" />
          </mxGeometry>
        </mxCell>
        <mxCell id="x0fX3sGU_hapRCEqtS8F-11" style="edgeStyle=none;rounded=0;orthogonalLoop=1;jettySize=auto;html=1;endArrow=none;endFill=0;" edge="1" parent="WIyWlLk6GJQsqaUBKTNV-1" source="x0fX3sGU_hapRCEqtS8F-0" target="x0fX3sGU_hapRCEqtS8F-10">
          <mxGeometry relative="1" as="geometry">
            <mxPoint x="-100.36880054475682" y="217.80578478300208" as="targetPoint" />
          </mxGeometry>
        </mxCell>
        <mxCell id="x0fX3sGU_hapRCEqtS8F-24" style="edgeStyle=none;rounded=0;orthogonalLoop=1;jettySize=auto;html=1;endArrow=none;endFill=0;" edge="1" parent="WIyWlLk6GJQsqaUBKTNV-1" source="x0fX3sGU_hapRCEqtS8F-0" target="x0fX3sGU_hapRCEqtS8F-22">
          <mxGeometry relative="1" as="geometry" />
        </mxCell>
        <mxCell id="x0fX3sGU_hapRCEqtS8F-26" style="edgeStyle=none;rounded=0;orthogonalLoop=1;jettySize=auto;html=1;endArrow=none;endFill=0;" edge="1" parent="WIyWlLk6GJQsqaUBKTNV-1" source="x0fX3sGU_hapRCEqtS8F-0" target="x0fX3sGU_hapRCEqtS8F-23">
          <mxGeometry relative="1" as="geometry">
            <mxPoint x="68.57142857142867" y="119.28571428571433" as="targetPoint" />
          </mxGeometry>
        </mxCell>
        <mxCell id="x0fX3sGU_hapRCEqtS8F-0" value="user" style="rounded=1;arcSize=10;whiteSpace=wrap;html=1;align=center;" vertex="1" parent="WIyWlLk6GJQsqaUBKTNV-1">
          <mxGeometry x="-430" y="170" width="100" height="40" as="geometry" />
        </mxCell>
        <mxCell id="x0fX3sGU_hapRCEqtS8F-18" style="edgeStyle=none;rounded=0;orthogonalLoop=1;jettySize=auto;html=1;endArrow=none;endFill=0;" edge="1" parent="WIyWlLk6GJQsqaUBKTNV-1" source="x0fX3sGU_hapRCEqtS8F-1" target="x0fX3sGU_hapRCEqtS8F-16">
          <mxGeometry relative="1" as="geometry" />
        </mxCell>
        <mxCell id="x0fX3sGU_hapRCEqtS8F-27" style="edgeStyle=none;rounded=0;orthogonalLoop=1;jettySize=auto;html=1;endArrow=none;endFill=0;" edge="1" parent="WIyWlLk6GJQsqaUBKTNV-1" source="x0fX3sGU_hapRCEqtS8F-1" target="x0fX3sGU_hapRCEqtS8F-15">
          <mxGeometry relative="1" as="geometry">
            <mxPoint x="62.72727272727275" y="83.63636363636363" as="targetPoint" />
          </mxGeometry>
        </mxCell>
        <mxCell id="x0fX3sGU_hapRCEqtS8F-1" value="role" style="rounded=1;arcSize=10;whiteSpace=wrap;html=1;align=center;" vertex="1" parent="WIyWlLk6GJQsqaUBKTNV-1">
          <mxGeometry x="-470" y="20" width="100" height="40" as="geometry" />
        </mxCell>
        <mxCell id="x0fX3sGU_hapRCEqtS8F-2" value="create_time" style="ellipse;whiteSpace=wrap;html=1;align=center;" vertex="1" parent="WIyWlLk6GJQsqaUBKTNV-1">
          <mxGeometry x="-370" y="320" width="100" height="40" as="geometry" />
        </mxCell>
        <mxCell id="x0fX3sGU_hapRCEqtS8F-3" value="id" style="ellipse;whiteSpace=wrap;html=1;align=center;fontStyle=4;" vertex="1" parent="WIyWlLk6GJQsqaUBKTNV-1">
          <mxGeometry x="-470" y="290" width="100" height="40" as="geometry" />
        </mxCell>
        <mxCell id="x0fX3sGU_hapRCEqtS8F-10" value="qr_code" style="ellipse;whiteSpace=wrap;html=1;align=center;" vertex="1" parent="WIyWlLk6GJQsqaUBKTNV-1">
          <mxGeometry x="-560" y="250" width="100" height="40" as="geometry" />
        </mxCell>
        <mxCell id="x0fX3sGU_hapRCEqtS8F-20" style="edgeStyle=none;rounded=0;orthogonalLoop=1;jettySize=auto;html=1;entryX=0.5;entryY=0.375;entryDx=0;entryDy=0;entryPerimeter=0;endArrow=none;endFill=0;" edge="1" parent="WIyWlLk6GJQsqaUBKTNV-1" source="x0fX3sGU_hapRCEqtS8F-12" target="x0fX3sGU_hapRCEqtS8F-13">
          <mxGeometry relative="1" as="geometry" />
        </mxCell>
        <mxCell id="x0fX3sGU_hapRCEqtS8F-21" style="edgeStyle=none;rounded=0;orthogonalLoop=1;jettySize=auto;html=1;endArrow=none;endFill=0;" edge="1" parent="WIyWlLk6GJQsqaUBKTNV-1" source="x0fX3sGU_hapRCEqtS8F-12" target="x0fX3sGU_hapRCEqtS8F-14">
          <mxGeometry relative="1" as="geometry" />
        </mxCell>
        <mxCell id="x0fX3sGU_hapRCEqtS8F-25" style="edgeStyle=none;rounded=0;orthogonalLoop=1;jettySize=auto;html=1;endArrow=none;endFill=0;" edge="1" parent="WIyWlLk6GJQsqaUBKTNV-1" source="x0fX3sGU_hapRCEqtS8F-12" target="x0fX3sGU_hapRCEqtS8F-22">
          <mxGeometry relative="1" as="geometry" />
        </mxCell>
        <mxCell id="x0fX3sGU_hapRCEqtS8F-12" value="school" style="rounded=1;arcSize=10;whiteSpace=wrap;html=1;align=center;" vertex="1" parent="WIyWlLk6GJQsqaUBKTNV-1">
          <mxGeometry x="-490" y="420" width="100" height="40" as="geometry" />
        </mxCell>
        <mxCell id="x0fX3sGU_hapRCEqtS8F-13" value="id" style="ellipse;whiteSpace=wrap;html=1;align=center;fontStyle=4;" vertex="1" parent="WIyWlLk6GJQsqaUBKTNV-1">
          <mxGeometry x="-600" y="540" width="100" height="40" as="geometry" />
        </mxCell>
        <mxCell id="x0fX3sGU_hapRCEqtS8F-14" value="name" style="ellipse;whiteSpace=wrap;html=1;align=center;" vertex="1" parent="WIyWlLk6GJQsqaUBKTNV-1">
          <mxGeometry x="-430" y="545" width="100" height="40" as="geometry" />
        </mxCell>
        <mxCell id="x0fX3sGU_hapRCEqtS8F-15" value="name" style="ellipse;whiteSpace=wrap;html=1;align=center;" vertex="1" parent="WIyWlLk6GJQsqaUBKTNV-1">
          <mxGeometry x="-413" y="90" width="100" height="40" as="geometry" />
        </mxCell>
        <mxCell id="x0fX3sGU_hapRCEqtS8F-16" value="id" style="ellipse;whiteSpace=wrap;html=1;align=center;fontStyle=4;" vertex="1" parent="WIyWlLk6GJQsqaUBKTNV-1">
          <mxGeometry x="-560" y="90" width="100" height="40" as="geometry" />
        </mxCell>
        <mxCell id="x0fX3sGU_hapRCEqtS8F-22" value="Relationship" style="shape=rhombus;perimeter=rhombusPerimeter;whiteSpace=wrap;html=1;align=center;" vertex="1" parent="WIyWlLk6GJQsqaUBKTNV-1">
          <mxGeometry x="-250" y="340" width="120" height="60" as="geometry" />
        </mxCell>
        <mxCell id="x0fX3sGU_hapRCEqtS8F-72" style="edgeStyle=none;rounded=0;orthogonalLoop=1;jettySize=auto;html=1;endArrow=none;endFill=0;" edge="1" parent="WIyWlLk6GJQsqaUBKTNV-1" source="x0fX3sGU_hapRCEqtS8F-23" target="x0fX3sGU_hapRCEqtS8F-1">
          <mxGeometry relative="1" as="geometry" />
        </mxCell>
        <mxCell id="x0fX3sGU_hapRCEqtS8F-23" value="Relationship" style="shape=rhombus;perimeter=rhombusPerimeter;whiteSpace=wrap;html=1;align=center;" vertex="1" parent="WIyWlLk6GJQsqaUBKTNV-1">
          <mxGeometry x="-270" y="100" width="120" height="60" as="geometry" />
        </mxCell>
        <mxCell id="x0fX3sGU_hapRCEqtS8F-33" style="edgeStyle=none;rounded=0;orthogonalLoop=1;jettySize=auto;html=1;endArrow=none;endFill=0;" edge="1" parent="WIyWlLk6GJQsqaUBKTNV-1" source="x0fX3sGU_hapRCEqtS8F-28" target="x0fX3sGU_hapRCEqtS8F-29">
          <mxGeometry relative="1" as="geometry" />
        </mxCell>
        <mxCell id="x0fX3sGU_hapRCEqtS8F-34" style="edgeStyle=none;rounded=0;orthogonalLoop=1;jettySize=auto;html=1;endArrow=none;endFill=0;" edge="1" parent="WIyWlLk6GJQsqaUBKTNV-1" source="x0fX3sGU_hapRCEqtS8F-28" target="x0fX3sGU_hapRCEqtS8F-30">
          <mxGeometry relative="1" as="geometry" />
        </mxCell>
        <mxCell id="x0fX3sGU_hapRCEqtS8F-36" style="edgeStyle=none;rounded=0;orthogonalLoop=1;jettySize=auto;html=1;endArrow=none;endFill=0;" edge="1" parent="WIyWlLk6GJQsqaUBKTNV-1" source="x0fX3sGU_hapRCEqtS8F-28" target="x0fX3sGU_hapRCEqtS8F-32">
          <mxGeometry relative="1" as="geometry" />
        </mxCell>
        <mxCell id="x0fX3sGU_hapRCEqtS8F-28" value="feedback" style="rounded=1;arcSize=10;whiteSpace=wrap;html=1;align=center;" vertex="1" parent="WIyWlLk6GJQsqaUBKTNV-1">
          <mxGeometry x="20" y="290" width="100" height="40" as="geometry" />
        </mxCell>
        <mxCell id="x0fX3sGU_hapRCEqtS8F-29" value="id" style="ellipse;whiteSpace=wrap;html=1;align=center;fontStyle=4;" vertex="1" parent="WIyWlLk6GJQsqaUBKTNV-1">
          <mxGeometry x="-130" y="400" width="100" height="40" as="geometry" />
        </mxCell>
        <mxCell id="x0fX3sGU_hapRCEqtS8F-30" value="content" style="ellipse;whiteSpace=wrap;html=1;align=center;" vertex="1" parent="WIyWlLk6GJQsqaUBKTNV-1">
          <mxGeometry x="-20" y="400" width="100" height="40" as="geometry" />
        </mxCell>
        <mxCell id="x0fX3sGU_hapRCEqtS8F-32" value="create_time" style="ellipse;whiteSpace=wrap;html=1;align=center;direction=west;" vertex="1" parent="WIyWlLk6GJQsqaUBKTNV-1">
          <mxGeometry x="100" y="400" width="100" height="40" as="geometry" />
        </mxCell>
        <mxCell id="x0fX3sGU_hapRCEqtS8F-40" style="edgeStyle=none;rounded=0;orthogonalLoop=1;jettySize=auto;html=1;endArrow=none;endFill=0;" edge="1" parent="WIyWlLk6GJQsqaUBKTNV-1" source="x0fX3sGU_hapRCEqtS8F-37" target="x0fX3sGU_hapRCEqtS8F-38">
          <mxGeometry relative="1" as="geometry" />
        </mxCell>
        <mxCell id="x0fX3sGU_hapRCEqtS8F-44" style="edgeStyle=none;rounded=0;orthogonalLoop=1;jettySize=auto;html=1;endArrow=none;endFill=0;" edge="1" parent="WIyWlLk6GJQsqaUBKTNV-1" source="x0fX3sGU_hapRCEqtS8F-37" target="x0fX3sGU_hapRCEqtS8F-43">
          <mxGeometry relative="1" as="geometry" />
        </mxCell>
        <mxCell id="x0fX3sGU_hapRCEqtS8F-52" style="edgeStyle=none;rounded=0;orthogonalLoop=1;jettySize=auto;html=1;endArrow=none;endFill=0;" edge="1" parent="WIyWlLk6GJQsqaUBKTNV-1" source="x0fX3sGU_hapRCEqtS8F-37" target="x0fX3sGU_hapRCEqtS8F-51">
          <mxGeometry relative="1" as="geometry" />
        </mxCell>
        <mxCell id="x0fX3sGU_hapRCEqtS8F-54" style="edgeStyle=none;rounded=0;orthogonalLoop=1;jettySize=auto;html=1;endArrow=none;endFill=0;" edge="1" parent="WIyWlLk6GJQsqaUBKTNV-1" source="x0fX3sGU_hapRCEqtS8F-37" target="x0fX3sGU_hapRCEqtS8F-53">
          <mxGeometry relative="1" as="geometry" />
        </mxCell>
        <mxCell id="x0fX3sGU_hapRCEqtS8F-56" style="edgeStyle=none;rounded=0;orthogonalLoop=1;jettySize=auto;html=1;endArrow=none;endFill=0;" edge="1" parent="WIyWlLk6GJQsqaUBKTNV-1" source="x0fX3sGU_hapRCEqtS8F-37" target="x0fX3sGU_hapRCEqtS8F-55">
          <mxGeometry relative="1" as="geometry" />
        </mxCell>
        <mxCell id="x0fX3sGU_hapRCEqtS8F-58" style="edgeStyle=none;rounded=0;orthogonalLoop=1;jettySize=auto;html=1;endArrow=none;endFill=0;" edge="1" parent="WIyWlLk6GJQsqaUBKTNV-1" source="x0fX3sGU_hapRCEqtS8F-37" target="x0fX3sGU_hapRCEqtS8F-57">
          <mxGeometry relative="1" as="geometry" />
        </mxCell>
        <mxCell id="x0fX3sGU_hapRCEqtS8F-60" style="edgeStyle=none;rounded=0;orthogonalLoop=1;jettySize=auto;html=1;endArrow=none;endFill=0;" edge="1" parent="WIyWlLk6GJQsqaUBKTNV-1" source="x0fX3sGU_hapRCEqtS8F-37" target="x0fX3sGU_hapRCEqtS8F-59">
          <mxGeometry relative="1" as="geometry" />
        </mxCell>
        <mxCell id="x0fX3sGU_hapRCEqtS8F-37" value="item" style="rounded=1;arcSize=10;whiteSpace=wrap;html=1;align=center;" vertex="1" parent="WIyWlLk6GJQsqaUBKTNV-1">
          <mxGeometry x="-110" y="740" width="100" height="40" as="geometry" />
        </mxCell>
        <mxCell id="x0fX3sGU_hapRCEqtS8F-38" value="id" style="ellipse;whiteSpace=wrap;html=1;align=center;fontStyle=4;" vertex="1" parent="WIyWlLk6GJQsqaUBKTNV-1">
          <mxGeometry x="-250" y="845" width="100" height="40" as="geometry" />
        </mxCell>
        <mxCell id="x0fX3sGU_hapRCEqtS8F-49" style="edgeStyle=none;rounded=0;orthogonalLoop=1;jettySize=auto;html=1;exitX=0.5;exitY=1;exitDx=0;exitDy=0;endArrow=none;endFill=0;" edge="1" parent="WIyWlLk6GJQsqaUBKTNV-1" source="x0fX3sGU_hapRCEqtS8F-42" target="x0fX3sGU_hapRCEqtS8F-47">
          <mxGeometry relative="1" as="geometry" />
        </mxCell>
        <mxCell id="x0fX3sGU_hapRCEqtS8F-74" style="edgeStyle=none;rounded=0;orthogonalLoop=1;jettySize=auto;html=1;exitX=0.5;exitY=1;exitDx=0;exitDy=0;endArrow=none;endFill=0;" edge="1" parent="WIyWlLk6GJQsqaUBKTNV-1" source="x0fX3sGU_hapRCEqtS8F-42" target="x0fX3sGU_hapRCEqtS8F-73">
          <mxGeometry relative="1" as="geometry" />
        </mxCell>
        <mxCell id="x0fX3sGU_hapRCEqtS8F-42" value="category" style="rounded=1;arcSize=10;whiteSpace=wrap;html=1;align=center;" vertex="1" parent="WIyWlLk6GJQsqaUBKTNV-1">
          <mxGeometry x="280" y="580" width="100" height="35" as="geometry" />
        </mxCell>
        <mxCell id="x0fX3sGU_hapRCEqtS8F-43" value="description" style="ellipse;whiteSpace=wrap;html=1;align=center;" vertex="1" parent="WIyWlLk6GJQsqaUBKTNV-1">
          <mxGeometry x="-140" y="845" width="100" height="40" as="geometry" />
        </mxCell>
        <mxCell id="x0fX3sGU_hapRCEqtS8F-50" style="edgeStyle=none;rounded=0;orthogonalLoop=1;jettySize=auto;html=1;endArrow=none;endFill=0;" edge="1" parent="WIyWlLk6GJQsqaUBKTNV-1" source="x0fX3sGU_hapRCEqtS8F-46" target="x0fX3sGU_hapRCEqtS8F-48">
          <mxGeometry relative="1" as="geometry" />
        </mxCell>
        <mxCell id="x0fX3sGU_hapRCEqtS8F-76" style="edgeStyle=none;rounded=0;orthogonalLoop=1;jettySize=auto;html=1;exitX=0.5;exitY=1;exitDx=0;exitDy=0;endArrow=none;endFill=0;" edge="1" parent="WIyWlLk6GJQsqaUBKTNV-1" source="x0fX3sGU_hapRCEqtS8F-46" target="x0fX3sGU_hapRCEqtS8F-75">
          <mxGeometry relative="1" as="geometry" />
        </mxCell>
        <mxCell id="x0fX3sGU_hapRCEqtS8F-46" value="picture" style="rounded=1;arcSize=10;whiteSpace=wrap;html=1;align=center;" vertex="1" parent="WIyWlLk6GJQsqaUBKTNV-1">
          <mxGeometry x="290" y="730" width="100" height="35" as="geometry" />
        </mxCell>
        <mxCell id="x0fX3sGU_hapRCEqtS8F-47" value="id" style="ellipse;whiteSpace=wrap;html=1;align=center;fontStyle=4;" vertex="1" parent="WIyWlLk6GJQsqaUBKTNV-1">
          <mxGeometry x="230" y="660" width="100" height="40" as="geometry" />
        </mxCell>
        <mxCell id="x0fX3sGU_hapRCEqtS8F-48" value="id" style="ellipse;whiteSpace=wrap;html=1;align=center;fontStyle=4;" vertex="1" parent="WIyWlLk6GJQsqaUBKTNV-1">
          <mxGeometry x="220" y="805" width="100" height="40" as="geometry" />
        </mxCell>
        <mxCell id="x0fX3sGU_hapRCEqtS8F-51" value="state" style="ellipse;whiteSpace=wrap;html=1;align=center;" vertex="1" parent="WIyWlLk6GJQsqaUBKTNV-1">
          <mxGeometry x="-20" y="846" width="100" height="40" as="geometry" />
        </mxCell>
        <mxCell id="x0fX3sGU_hapRCEqtS8F-53" value="price" style="ellipse;whiteSpace=wrap;html=1;align=center;" vertex="1" parent="WIyWlLk6GJQsqaUBKTNV-1">
          <mxGeometry x="30" y="790" width="100" height="40" as="geometry" />
        </mxCell>
        <mxCell id="x0fX3sGU_hapRCEqtS8F-55" value="create_time" style="ellipse;whiteSpace=wrap;html=1;align=center;" vertex="1" parent="WIyWlLk6GJQsqaUBKTNV-1">
          <mxGeometry x="40" y="730" width="100" height="40" as="geometry" />
        </mxCell>
        <mxCell id="x0fX3sGU_hapRCEqtS8F-57" value="title" style="ellipse;whiteSpace=wrap;html=1;align=center;" vertex="1" parent="WIyWlLk6GJQsqaUBKTNV-1">
          <mxGeometry x="50" y="670" width="100" height="40" as="geometry" />
        </mxCell>
        <mxCell id="x0fX3sGU_hapRCEqtS8F-59" value="discount" style="ellipse;whiteSpace=wrap;html=1;align=center;" vertex="1" parent="WIyWlLk6GJQsqaUBKTNV-1">
          <mxGeometry x="50" y="600" width="100" height="40" as="geometry" />
        </mxCell>
        <mxCell id="x0fX3sGU_hapRCEqtS8F-64" style="edgeStyle=none;rounded=0;orthogonalLoop=1;jettySize=auto;html=1;endArrow=none;endFill=0;" edge="1" parent="WIyWlLk6GJQsqaUBKTNV-1" source="x0fX3sGU_hapRCEqtS8F-61" target="x0fX3sGU_hapRCEqtS8F-62">
          <mxGeometry relative="1" as="geometry" />
        </mxCell>
        <mxCell id="x0fX3sGU_hapRCEqtS8F-65" style="edgeStyle=none;rounded=0;orthogonalLoop=1;jettySize=auto;html=1;endArrow=none;endFill=0;" edge="1" parent="WIyWlLk6GJQsqaUBKTNV-1" source="x0fX3sGU_hapRCEqtS8F-61" target="x0fX3sGU_hapRCEqtS8F-63">
          <mxGeometry relative="1" as="geometry" />
        </mxCell>
        <mxCell id="x0fX3sGU_hapRCEqtS8F-61" value="admin" style="rounded=1;arcSize=10;whiteSpace=wrap;html=1;align=center;" vertex="1" parent="WIyWlLk6GJQsqaUBKTNV-1">
          <mxGeometry x="414" y="110" width="100" height="40" as="geometry" />
        </mxCell>
        <mxCell id="x0fX3sGU_hapRCEqtS8F-62" value="id" style="ellipse;whiteSpace=wrap;html=1;align=center;fontStyle=4;" vertex="1" parent="WIyWlLk6GJQsqaUBKTNV-1">
          <mxGeometry x="340" y="30" width="100" height="40" as="geometry" />
        </mxCell>
        <mxCell id="x0fX3sGU_hapRCEqtS8F-63" value="password" style="ellipse;whiteSpace=wrap;html=1;align=center;" vertex="1" parent="WIyWlLk6GJQsqaUBKTNV-1">
          <mxGeometry x="480" y="30" width="100" height="40" as="geometry" />
        </mxCell>
        <mxCell id="x0fX3sGU_hapRCEqtS8F-77" style="edgeStyle=none;rounded=0;orthogonalLoop=1;jettySize=auto;html=1;endArrow=none;endFill=0;" edge="1" parent="WIyWlLk6GJQsqaUBKTNV-1" source="x0fX3sGU_hapRCEqtS8F-66" target="x0fX3sGU_hapRCEqtS8F-67">
          <mxGeometry relative="1" as="geometry" />
        </mxCell>
        <mxCell id="x0fX3sGU_hapRCEqtS8F-78" style="edgeStyle=none;rounded=0;orthogonalLoop=1;jettySize=auto;html=1;endArrow=none;endFill=0;" edge="1" parent="WIyWlLk6GJQsqaUBKTNV-1" source="x0fX3sGU_hapRCEqtS8F-66" target="x0fX3sGU_hapRCEqtS8F-68">
          <mxGeometry relative="1" as="geometry" />
        </mxCell>
        <mxCell id="x0fX3sGU_hapRCEqtS8F-79" style="edgeStyle=none;rounded=0;orthogonalLoop=1;jettySize=auto;html=1;endArrow=none;endFill=0;" edge="1" parent="WIyWlLk6GJQsqaUBKTNV-1" source="x0fX3sGU_hapRCEqtS8F-66" target="x0fX3sGU_hapRCEqtS8F-69">
          <mxGeometry relative="1" as="geometry" />
        </mxCell>
        <mxCell id="x0fX3sGU_hapRCEqtS8F-81" style="edgeStyle=none;rounded=0;orthogonalLoop=1;jettySize=auto;html=1;endArrow=none;endFill=0;" edge="1" parent="WIyWlLk6GJQsqaUBKTNV-1" source="x0fX3sGU_hapRCEqtS8F-66" target="x0fX3sGU_hapRCEqtS8F-80">
          <mxGeometry relative="1" as="geometry" />
        </mxCell>
        <mxCell id="x0fX3sGU_hapRCEqtS8F-88" style="edgeStyle=none;rounded=0;orthogonalLoop=1;jettySize=auto;html=1;endArrow=none;endFill=0;" edge="1" parent="WIyWlLk6GJQsqaUBKTNV-1" source="x0fX3sGU_hapRCEqtS8F-66" target="x0fX3sGU_hapRCEqtS8F-87">
          <mxGeometry relative="1" as="geometry" />
        </mxCell>
        <mxCell id="x0fX3sGU_hapRCEqtS8F-90" style="edgeStyle=none;rounded=0;orthogonalLoop=1;jettySize=auto;html=1;entryX=0.5;entryY=1;entryDx=0;entryDy=0;endArrow=none;endFill=0;" edge="1" parent="WIyWlLk6GJQsqaUBKTNV-1" source="x0fX3sGU_hapRCEqtS8F-66" target="x0fX3sGU_hapRCEqtS8F-89">
          <mxGeometry relative="1" as="geometry" />
        </mxCell>
        <mxCell id="x0fX3sGU_hapRCEqtS8F-92" style="edgeStyle=none;rounded=0;orthogonalLoop=1;jettySize=auto;html=1;endArrow=none;endFill=0;" edge="1" parent="WIyWlLk6GJQsqaUBKTNV-1" source="x0fX3sGU_hapRCEqtS8F-66" target="x0fX3sGU_hapRCEqtS8F-91">
          <mxGeometry relative="1" as="geometry" />
        </mxCell>
        <mxCell id="x0fX3sGU_hapRCEqtS8F-66" value="report" style="rounded=1;arcSize=10;whiteSpace=wrap;html=1;align=center;" vertex="1" parent="WIyWlLk6GJQsqaUBKTNV-1">
          <mxGeometry x="560" y="130" width="100" height="40" as="geometry" />
        </mxCell>
        <mxCell id="x0fX3sGU_hapRCEqtS8F-67" value="id" style="ellipse;whiteSpace=wrap;html=1;align=center;fontStyle=4;" vertex="1" parent="WIyWlLk6GJQsqaUBKTNV-1">
          <mxGeometry x="640" y="60" width="100" height="40" as="geometry" />
        </mxCell>
        <mxCell id="x0fX3sGU_hapRCEqtS8F-68" value="from_id" style="ellipse;whiteSpace=wrap;html=1;align=center;" vertex="1" parent="WIyWlLk6GJQsqaUBKTNV-1">
          <mxGeometry x="690" y="130" width="100" height="40" as="geometry" />
        </mxCell>
        <mxCell id="x0fX3sGU_hapRCEqtS8F-69" value="to_id" style="ellipse;whiteSpace=wrap;html=1;align=center;" vertex="1" parent="WIyWlLk6GJQsqaUBKTNV-1">
          <mxGeometry x="670" y="180" width="100" height="40" as="geometry" />
        </mxCell>
        <mxCell id="x0fX3sGU_hapRCEqtS8F-73" value="name" style="ellipse;whiteSpace=wrap;html=1;align=center;" vertex="1" parent="WIyWlLk6GJQsqaUBKTNV-1">
          <mxGeometry x="340" y="660" width="100" height="40" as="geometry" />
        </mxCell>
        <mxCell id="x0fX3sGU_hapRCEqtS8F-75" value="url" style="ellipse;whiteSpace=wrap;html=1;align=center;" vertex="1" parent="WIyWlLk6GJQsqaUBKTNV-1">
          <mxGeometry x="340" y="805" width="100" height="40" as="geometry" />
        </mxCell>
        <mxCell id="x0fX3sGU_hapRCEqtS8F-80" value="content" style="ellipse;whiteSpace=wrap;html=1;align=center;" vertex="1" parent="WIyWlLk6GJQsqaUBKTNV-1">
          <mxGeometry x="550" y="200" width="100" height="40" as="geometry" />
        </mxCell>
        <mxCell id="x0fX3sGU_hapRCEqtS8F-85" style="edgeStyle=none;rounded=0;orthogonalLoop=1;jettySize=auto;html=1;endArrow=none;endFill=0;" edge="1" parent="WIyWlLk6GJQsqaUBKTNV-1" source="x0fX3sGU_hapRCEqtS8F-82" target="x0fX3sGU_hapRCEqtS8F-83">
          <mxGeometry relative="1" as="geometry" />
        </mxCell>
        <mxCell id="x0fX3sGU_hapRCEqtS8F-86" style="edgeStyle=none;rounded=0;orthogonalLoop=1;jettySize=auto;html=1;endArrow=none;endFill=0;" edge="1" parent="WIyWlLk6GJQsqaUBKTNV-1" source="x0fX3sGU_hapRCEqtS8F-82" target="x0fX3sGU_hapRCEqtS8F-84">
          <mxGeometry relative="1" as="geometry" />
        </mxCell>
        <mxCell id="x0fX3sGU_hapRCEqtS8F-82" value="report_type" style="rounded=1;arcSize=10;whiteSpace=wrap;html=1;align=center;" vertex="1" parent="WIyWlLk6GJQsqaUBKTNV-1">
          <mxGeometry x="150" y="70" width="100" height="40" as="geometry" />
        </mxCell>
        <mxCell id="x0fX3sGU_hapRCEqtS8F-83" value="id" style="ellipse;whiteSpace=wrap;html=1;align=center;fontStyle=4;" vertex="1" parent="WIyWlLk6GJQsqaUBKTNV-1">
          <mxGeometry x="110" y="180" width="100" height="40" as="geometry" />
        </mxCell>
        <mxCell id="x0fX3sGU_hapRCEqtS8F-84" value="name" style="ellipse;whiteSpace=wrap;html=1;align=center;" vertex="1" parent="WIyWlLk6GJQsqaUBKTNV-1">
          <mxGeometry x="250" y="180" width="100" height="40" as="geometry" />
        </mxCell>
        <mxCell id="x0fX3sGU_hapRCEqtS8F-87" value="item_id" style="ellipse;whiteSpace=wrap;html=1;align=center;" vertex="1" parent="WIyWlLk6GJQsqaUBKTNV-1">
          <mxGeometry x="420" y="240" width="100" height="40" as="geometry" />
        </mxCell>
        <mxCell id="x0fX3sGU_hapRCEqtS8F-89" value="reda_state" style="ellipse;whiteSpace=wrap;html=1;align=center;" vertex="1" parent="WIyWlLk6GJQsqaUBKTNV-1">
          <mxGeometry x="520" y="280" width="100" height="40" as="geometry" />
        </mxCell>
        <mxCell id="x0fX3sGU_hapRCEqtS8F-91" value="confirm" style="ellipse;whiteSpace=wrap;html=1;align=center;" vertex="1" parent="WIyWlLk6GJQsqaUBKTNV-1">
          <mxGeometry x="660" y="280" width="100" height="40" as="geometry" />
        </mxCell>
        <mxCell id="x0fX3sGU_hapRCEqtS8F-96" style="edgeStyle=none;rounded=0;orthogonalLoop=1;jettySize=auto;html=1;endArrow=none;endFill=0;" edge="1" parent="WIyWlLk6GJQsqaUBKTNV-1" source="x0fX3sGU_hapRCEqtS8F-94" target="x0fX3sGU_hapRCEqtS8F-95">
          <mxGeometry relative="1" as="geometry" />
        </mxCell>
        <mxCell id="x0fX3sGU_hapRCEqtS8F-99" style="edgeStyle=none;rounded=0;orthogonalLoop=1;jettySize=auto;html=1;endArrow=none;endFill=0;" edge="1" parent="WIyWlLk6GJQsqaUBKTNV-1" source="x0fX3sGU_hapRCEqtS8F-94" target="x0fX3sGU_hapRCEqtS8F-97">
          <mxGeometry relative="1" as="geometry" />
        </mxCell>
        <mxCell id="x0fX3sGU_hapRCEqtS8F-100" style="edgeStyle=none;rounded=0;orthogonalLoop=1;jettySize=auto;html=1;endArrow=none;endFill=0;" edge="1" parent="WIyWlLk6GJQsqaUBKTNV-1" source="x0fX3sGU_hapRCEqtS8F-94" target="x0fX3sGU_hapRCEqtS8F-98">
          <mxGeometry relative="1" as="geometry" />
        </mxCell>
        <mxCell id="x0fX3sGU_hapRCEqtS8F-94" value="publish" style="rounded=1;arcSize=10;whiteSpace=wrap;html=1;align=center;" vertex="1" parent="WIyWlLk6GJQsqaUBKTNV-1">
          <mxGeometry x="500" y="430" width="100" height="40" as="geometry" />
        </mxCell>
        <mxCell id="x0fX3sGU_hapRCEqtS8F-95" value="id" style="ellipse;whiteSpace=wrap;html=1;align=center;fontStyle=4;" vertex="1" parent="WIyWlLk6GJQsqaUBKTNV-1">
          <mxGeometry x="450" y="530" width="100" height="40" as="geometry" />
        </mxCell>
        <mxCell id="x0fX3sGU_hapRCEqtS8F-97" value="content" style="ellipse;whiteSpace=wrap;html=1;align=center;" vertex="1" parent="WIyWlLk6GJQsqaUBKTNV-1">
          <mxGeometry x="580" y="530" width="100" height="40" as="geometry" />
        </mxCell>
        <mxCell id="x0fX3sGU_hapRCEqtS8F-98" value="create_time" style="ellipse;whiteSpace=wrap;html=1;align=center;" vertex="1" parent="WIyWlLk6GJQsqaUBKTNV-1">
          <mxGeometry x="660" y="460" width="100" height="40" as="geometry" />
        </mxCell>
      </root>
    </mxGraphModel>
  </diagram>
</mxfile>
